<mxfile host="app.diagrams.net" modified="2021-04-19T17:31:34.842Z" agent="5.0 (Windows NT 6.3; Win64; x64) AppleWebKit/537.36 (KHTML, like Gecko) Chrome/89.0.4389.128 Safari/537.36" etag="0q4DwrlFkvfyOn8cVdMn" version="14.6.2" type="github">
  <diagram id="8x8Naf-NfG9l2ikGPiJO" name="Page-1">
    <mxGraphModel dx="1888" dy="492" grid="1" gridSize="10" guides="1" tooltips="1" connect="1" arrows="1" fold="1" page="1" pageScale="1" pageWidth="850" pageHeight="1100" math="0" shadow="0">
      <root>
        <mxCell id="0" />
        <mxCell id="1" parent="0" />
        <mxCell id="aHTfr5huvkaokyCQW7WO-14" style="edgeStyle=orthogonalEdgeStyle;rounded=0;orthogonalLoop=1;jettySize=auto;html=1;entryX=0.885;entryY=0.996;entryDx=0;entryDy=0;entryPerimeter=0;strokeWidth=1;" edge="1" parent="1" source="aHTfr5huvkaokyCQW7WO-3" target="aHTfr5huvkaokyCQW7WO-8">
          <mxGeometry relative="1" as="geometry">
            <Array as="points">
              <mxPoint x="710" y="270" />
              <mxPoint x="512" y="270" />
            </Array>
          </mxGeometry>
        </mxCell>
        <mxCell id="aHTfr5huvkaokyCQW7WO-3" value="&lt;table border=&quot;1&quot; width=&quot;100%&quot; cellpadding=&quot;4&quot; style=&quot;width: 100% ; height: 100% ; border-collapse: collapse&quot;&gt;&lt;tbody&gt;&lt;tr&gt;&lt;th&gt;Customer&lt;/th&gt;&lt;/tr&gt;&lt;tr&gt;&lt;td&gt;+trasactionCount:int&lt;/td&gt;&lt;/tr&gt;&lt;tr&gt;&lt;td&gt;+gettransactionCount():int&lt;br&gt;+calculateDiscount();Int&lt;/td&gt;&lt;/tr&gt;&lt;/tbody&gt;&lt;/table&gt;" style="text;html=1;strokeColor=none;fillColor=none;overflow=fill;align=left;" vertex="1" parent="1">
          <mxGeometry x="630" y="320" width="160" height="140" as="geometry" />
        </mxCell>
        <mxCell id="aHTfr5huvkaokyCQW7WO-15" style="edgeStyle=orthogonalEdgeStyle;rounded=0;orthogonalLoop=1;jettySize=auto;html=1;entryX=0.385;entryY=1.024;entryDx=0;entryDy=0;entryPerimeter=0;strokeWidth=1;" edge="1" parent="1" source="aHTfr5huvkaokyCQW7WO-4" target="aHTfr5huvkaokyCQW7WO-8">
          <mxGeometry relative="1" as="geometry" />
        </mxCell>
        <mxCell id="aHTfr5huvkaokyCQW7WO-4" value="&lt;table border=&quot;1&quot; width=&quot;100%&quot; cellpadding=&quot;4&quot; style=&quot;width: 100% ; height: 100% ; border-collapse: collapse&quot;&gt;&lt;tbody&gt;&lt;tr&gt;&lt;th&gt;Vendor&lt;/th&gt;&lt;/tr&gt;&lt;tr&gt;&lt;td&gt;+vendorName:String&lt;br&gt;+credit:float&lt;br&gt;+product:Product[0...100]&lt;/td&gt;&lt;/tr&gt;&lt;tr&gt;&lt;td&gt;checkDue():float&lt;br&gt;fetchproductbyID():Product&lt;br&gt;fetchproductbyName():Product&lt;/td&gt;&lt;/tr&gt;&lt;/tbody&gt;&lt;/table&gt;" style="text;html=1;strokeColor=none;fillColor=none;overflow=fill;align=left;" vertex="1" parent="1">
          <mxGeometry x="360" y="285" width="180" height="140" as="geometry" />
        </mxCell>
        <mxCell id="aHTfr5huvkaokyCQW7WO-5" value="&lt;table border=&quot;1&quot; width=&quot;100%&quot; cellpadding=&quot;4&quot; style=&quot;width: 100% ; height: 100% ; border-collapse: collapse&quot;&gt;&lt;tbody&gt;&lt;tr&gt;&lt;th&gt;Ordate:strder&lt;/th&gt;&lt;/tr&gt;&lt;tr&gt;&lt;td&gt;+id:int&lt;br&gt;+vendor:Vendor&lt;br&gt;+date:String&lt;br&gt;+OrderProduct:Product&lt;br&gt;+OrdorQuantity:int&lt;br&gt;+amountPaid:float&lt;/td&gt;&lt;/tr&gt;&lt;tr&gt;&lt;td&gt;-updateVendorcredit():void&lt;/td&gt;&lt;/tr&gt;&lt;/tbody&gt;&lt;/table&gt;" style="text;html=1;strokeColor=none;fillColor=none;overflow=fill;align=left;" vertex="1" parent="1">
          <mxGeometry x="140" y="270" width="160" height="150" as="geometry" />
        </mxCell>
        <mxCell id="aHTfr5huvkaokyCQW7WO-19" style="edgeStyle=orthogonalEdgeStyle;rounded=0;orthogonalLoop=1;jettySize=auto;html=1;strokeWidth=1;" edge="1" parent="1" source="aHTfr5huvkaokyCQW7WO-6" target="aHTfr5huvkaokyCQW7WO-4">
          <mxGeometry relative="1" as="geometry">
            <Array as="points">
              <mxPoint x="450" y="450" />
            </Array>
          </mxGeometry>
        </mxCell>
        <mxCell id="aHTfr5huvkaokyCQW7WO-20" style="edgeStyle=orthogonalEdgeStyle;rounded=0;orthogonalLoop=1;jettySize=auto;html=1;exitX=1;exitY=0.5;exitDx=0;exitDy=0;entryX=-0.015;entryY=0.572;entryDx=0;entryDy=0;entryPerimeter=0;strokeWidth=1;" edge="1" parent="1" source="aHTfr5huvkaokyCQW7WO-6" target="aHTfr5huvkaokyCQW7WO-5">
          <mxGeometry relative="1" as="geometry" />
        </mxCell>
        <mxCell id="aHTfr5huvkaokyCQW7WO-6" value="&lt;table border=&quot;1&quot; width=&quot;100%&quot; cellpadding=&quot;4&quot; style=&quot;width: 100% ; height: 100% ; border-collapse: collapse&quot;&gt;&lt;tbody&gt;&lt;tr&gt;&lt;th&gt;Product&lt;/th&gt;&lt;/tr&gt;&lt;tr&gt;&lt;td&gt;+id:int&lt;br&gt;+name:String&lt;br&gt;+category:float&lt;br&gt;+Saleprice:float&lt;br&gt;+cost:float&lt;br&gt;+quantity:int&lt;br&gt;+active:boolean&lt;/td&gt;&lt;/tr&gt;&lt;tr&gt;&lt;td&gt;+getProfitorloss():float&lt;br&gt;+active():void&lt;br&gt;+deactive():void&lt;br&gt;+isBelowthreshold():boolean&lt;/td&gt;&lt;/tr&gt;&lt;/tbody&gt;&lt;/table&gt;" style="text;html=1;strokeColor=none;fillColor=none;overflow=fill;align=left;" vertex="1" parent="1">
          <mxGeometry x="-140" y="250" width="170" height="210" as="geometry" />
        </mxCell>
        <mxCell id="aHTfr5huvkaokyCQW7WO-12" style="edgeStyle=orthogonalEdgeStyle;rounded=0;orthogonalLoop=1;jettySize=auto;html=1;entryX=1;entryY=0.5;entryDx=0;entryDy=0;strokeWidth=4;" edge="1" parent="1" source="aHTfr5huvkaokyCQW7WO-7" target="aHTfr5huvkaokyCQW7WO-8">
          <mxGeometry relative="1" as="geometry" />
        </mxCell>
        <mxCell id="aHTfr5huvkaokyCQW7WO-7" value="&lt;table border=&quot;1&quot; width=&quot;100%&quot; cellpadding=&quot;4&quot; style=&quot;width: 100% ; height: 100% ; border-collapse: collapse&quot;&gt;&lt;tbody&gt;&lt;tr&gt;&lt;th&gt;Contact&lt;/th&gt;&lt;/tr&gt;&lt;tr&gt;&lt;td&gt;+name:String&lt;br&gt;+phone:String&lt;br&gt;+email:String&lt;/td&gt;&lt;/tr&gt;&lt;tr&gt;&lt;td&gt;+getContactdetails():string&lt;br&gt;+updateContactdetails(contactdetails:string):void&lt;/td&gt;&lt;/tr&gt;&lt;/tbody&gt;&lt;/table&gt;" style="text;html=1;strokeColor=none;fillColor=none;overflow=fill;align=left;" vertex="1" parent="1">
          <mxGeometry x="580" y="70" width="270" height="140" as="geometry" />
        </mxCell>
        <mxCell id="aHTfr5huvkaokyCQW7WO-8" value="&lt;table border=&quot;1&quot; width=&quot;100%&quot; cellpadding=&quot;4&quot; style=&quot;width: 100% ; height: 100% ; border-collapse: collapse&quot;&gt;&lt;tbody&gt;&lt;tr&gt;&lt;th&gt;BusinessPartner&lt;/th&gt;&lt;/tr&gt;&lt;tr&gt;&lt;td&gt;+id:int&lt;br&gt;+address:Address&lt;br&gt;+contact:Contact&lt;/td&gt;&lt;/tr&gt;&lt;tr&gt;&lt;td&gt;+getContact():Contact&lt;br&gt;+getAddress():Address&lt;/td&gt;&lt;/tr&gt;&lt;/tbody&gt;&lt;/table&gt;" style="text;html=1;strokeColor=none;fillColor=none;overflow=fill;align=left;" vertex="1" parent="1">
          <mxGeometry x="370" y="70" width="160" height="140" as="geometry" />
        </mxCell>
        <mxCell id="aHTfr5huvkaokyCQW7WO-11" style="edgeStyle=orthogonalEdgeStyle;rounded=0;orthogonalLoop=1;jettySize=auto;html=1;strokeWidth=5;" edge="1" parent="1" source="aHTfr5huvkaokyCQW7WO-9">
          <mxGeometry relative="1" as="geometry">
            <mxPoint x="360" y="130" as="targetPoint" />
            <Array as="points">
              <mxPoint x="340" y="130" />
              <mxPoint x="340" y="130" />
            </Array>
          </mxGeometry>
        </mxCell>
        <mxCell id="aHTfr5huvkaokyCQW7WO-9" value="&lt;table border=&quot;1&quot; width=&quot;100%&quot; cellpadding=&quot;4&quot; style=&quot;width: 100% ; height: 100% ; border-collapse: collapse&quot;&gt;&lt;tbody&gt;&lt;tr&gt;&lt;th&gt;Address&lt;/th&gt;&lt;/tr&gt;&lt;tr&gt;&lt;td&gt;+Street:Street&lt;br&gt;+city:String&lt;br&gt;+state:String&lt;/td&gt;&lt;/tr&gt;&lt;tr&gt;&lt;td&gt;+getAddressDetiails:String&lt;br&gt;+UpdateAddressDetails(AddressDetails:String):void&lt;/td&gt;&lt;/tr&gt;&lt;/tbody&gt;&lt;/table&gt;" style="text;html=1;strokeColor=none;fillColor=none;overflow=fill;align=left;" vertex="1" parent="1">
          <mxGeometry x="-100" y="60" width="290" height="140" as="geometry" />
        </mxCell>
        <mxCell id="aHTfr5huvkaokyCQW7WO-18" value="" style="endArrow=none;html=1;strokeWidth=1;entryX=-0.009;entryY=0.369;entryDx=0;entryDy=0;entryPerimeter=0;" edge="1" parent="1" target="aHTfr5huvkaokyCQW7WO-4">
          <mxGeometry width="50" height="50" relative="1" as="geometry">
            <mxPoint x="300" y="337" as="sourcePoint" />
            <mxPoint x="350" y="340" as="targetPoint" />
          </mxGeometry>
        </mxCell>
      </root>
    </mxGraphModel>
  </diagram>
</mxfile>
